<svg version="1.1" id="Layer_1" xmlns="http://www.w3.org/2000/svg" xmlns:xlink="http://www.w3.org/1999/xlink" x="0px" y="0px"
	 width="100%" viewBox="0 0 1024 1024" enable-background="new 0 0 1024 1024" xml:space="preserve">
<path fill="#000000" opacity="1.000000" stroke="none" 
	d="
M481.000000,1025.000000 
	C320.666656,1025.000000 160.833328,1025.000000 1.000000,1025.000000 
	C1.000000,683.666687 1.000000,342.333344 1.000000,1.000000 
	C342.333344,1.000000 683.666687,1.000000 1025.000000,1.000000 
	C1025.000000,342.333344 1025.000000,683.666687 1025.000000,1025.000000 
	C843.833313,1025.000000 662.666687,1025.000000 481.000000,1025.000000 
M189.076080,376.350067 
	C188.706879,376.992157 188.337677,377.634216 187.302582,378.269409 
	C185.564926,379.865173 183.827286,381.460938 181.410706,383.265350 
	C177.332626,385.369446 177.029236,389.139008 177.030792,393.080444 
	C177.040207,416.881042 177.025696,440.681641 177.030869,464.482239 
	C177.033035,474.488861 183.497543,480.969696 193.495773,480.970612 
	C264.398254,480.977051 335.300781,480.948700 406.203186,481.025757 
	C411.753632,481.031769 415.814972,478.802399 418.832672,474.408722 
	C424.144653,466.674561 422.098785,458.273468 420.824005,449.038330 
	C420.842682,444.370239 420.861359,439.702179 421.209991,434.498718 
	C421.106506,433.324585 421.002991,432.150452 420.845917,430.150269 
	C420.864685,428.771301 420.883453,427.392365 421.412537,425.580597 
	C421.237518,419.041962 421.062500,412.503326 420.835907,405.229950 
	C420.853821,404.494080 420.871765,403.758209 421.388428,402.584473 
	C421.408691,398.048157 421.935791,393.443420 421.334961,388.990906 
	C420.336121,381.589233 416.569122,378.309998 408.323883,376.427002 
	C406.006866,376.299561 403.689880,376.062042 401.372803,376.060638 
	C330.742828,376.017731 260.112823,375.998047 189.076080,376.350067 
M409.203827,509.058716 
	C339.925842,509.087708 270.647858,509.116699 200.429535,509.121887 
	C199.802963,509.143494 199.176376,509.165070 197.829819,509.223175 
	C196.364822,509.210571 194.899841,509.197937 192.566299,509.117554 
	C181.953629,509.520813 177.160034,514.170654 177.101868,525.037048 
	C176.947113,553.943420 177.003998,582.851196 177.117599,611.757935 
	C177.124466,613.506531 178.361755,615.250244 179.338791,617.612366 
	C182.064957,624.873840 187.916199,627.499817 195.045303,627.781128 
	C201.368057,628.030579 207.708603,627.826294 214.041290,627.827209 
	C275.535248,627.835999 337.029236,627.817261 398.523132,627.891052 
	C406.439972,627.900574 413.946442,627.342041 419.501923,619.626953 
	C422.223694,617.049072 422.657104,614.158142 420.664276,610.310120 
	C420.688263,609.891602 420.712219,609.473145 421.139771,608.481140 
	C421.056183,602.642822 420.972626,596.804504 420.839752,590.321228 
	C420.854065,589.890564 420.868347,589.459900 421.277466,588.592346 
	C421.157318,587.393982 421.037201,586.195679 420.864807,584.069580 
	C420.867462,579.716553 420.870148,575.363464 421.468292,570.598206 
	C423.539825,567.887451 423.759613,565.320740 420.826630,562.125427 
	C420.851837,560.093323 420.877014,558.061218 421.191864,555.557373 
	C421.096863,554.696167 421.001862,553.835022 420.853851,552.049255 
	C420.882507,547.705994 420.911133,543.362793 421.300018,538.273926 
	C421.519470,533.841736 421.439301,529.369385 422.025574,524.986267 
	C423.012634,517.606445 417.094513,510.665466 409.203827,509.058716 
M571.062195,480.100922 
	C571.062195,480.100922 571.226135,480.153198 571.226135,480.153198 
	C571.226135,480.153198 570.963806,479.995972 571.214233,479.372498 
	C586.451477,463.992889 601.678772,448.603424 616.940002,433.247650 
	C618.633423,431.543732 619.789368,430.177399 617.509766,427.896149 
	C603.029175,413.405029 588.622437,398.839813 574.244995,384.246124 
	C571.114624,381.068634 567.628723,379.930237 563.390198,381.537598 
	C559.166870,383.139130 558.078369,386.572632 557.783875,390.685150 
	C557.348450,396.766479 556.643250,402.828522 556.046143,407.979889 
	C556.046143,403.216400 556.046143,398.452911 556.046143,393.689423 
	C555.656799,393.686615 555.267395,393.683838 554.878052,393.681030 
	C554.878052,398.593018 554.878052,403.505005 554.878052,408.968079 
	C524.424316,408.968079 494.575348,408.968079 464.726379,408.968079 
	C466.353760,410.044189 467.979401,410.043671 469.605072,410.044220 
	C486.589783,410.049866 503.574707,410.108459 520.559143,410.043427 
	C532.369202,409.998169 544.178528,409.783112 555.354492,410.214874 
	C553.095337,410.553619 550.837036,411.179962 548.576843,411.187225 
	C521.956909,411.272888 495.336639,411.254059 468.716522,411.291534 
	C462.196045,411.300720 462.124847,411.431305 462.141479,418.083527 
	C462.158081,424.738708 462.158752,431.393951 462.159485,438.049164 
	C462.160248,444.926575 462.156616,444.939392 468.988068,444.944641 
	C495.941620,444.965240 522.895203,444.957916 549.848694,445.008148 
	C555.357666,445.018402 556.928345,446.615906 557.110718,452.124237 
	C557.281311,457.277344 557.171021,462.446625 557.525635,467.585266 
	C558.206299,477.448517 561.036499,479.930206 571.062195,480.100922 
M778.607117,617.135315 
	C823.797424,604.314697 858.694641,566.501892 860.606628,513.754333 
	C861.848938,479.481232 847.386658,450.881378 821.331970,428.752472 
	C782.385437,395.674103 731.157043,391.942993 690.275085,419.229767 
	C656.527832,441.754425 638.703674,473.661224 639.315247,514.391418 
	C639.748779,543.266968 650.261414,568.750244 671.426819,589.051086 
	C701.622375,618.013245 737.211609,627.212097 778.607117,617.135315 
M511.534302,528.484009 
	C498.697662,540.534973 485.724609,552.445679 473.104675,564.719421 
	C469.138916,568.576416 466.113098,573.401978 462.686615,577.807251 
	C462.405853,578.168213 462.353699,578.706970 461.845245,580.171509 
	C463.818634,581.853027 466.217682,583.652710 468.333008,585.739929 
	C481.131287,598.368286 493.856110,611.071106 506.625946,623.728394 
	C509.794312,626.868896 513.475830,628.651428 517.919189,626.758606 
	C522.526001,624.796326 523.829346,620.752869 523.895569,616.139648 
	C523.960083,611.643738 523.969543,607.147034 524.009888,602.650818 
	C524.082458,594.568359 524.296448,594.356567 532.470520,594.228882 
	C533.303101,594.215820 534.135864,594.221375 534.968567,594.221130 
	C558.449829,594.214844 581.931641,594.130920 605.411987,594.274292 
	C609.687561,594.300415 611.388489,593.031799 611.193726,588.570740 
	C610.888916,581.589783 611.129395,574.585266 611.127136,567.590759 
	C611.124634,559.933594 611.118774,559.915833 603.428955,559.905701 
	C579.447754,559.874084 555.466431,559.880554 531.485352,559.817932 
	C525.611267,559.802612 524.125244,558.281189 524.009521,552.387573 
	C523.918030,547.726196 524.062805,543.059448 523.939331,538.399475 
	C523.727417,530.405762 520.215820,527.379456 511.534302,528.484009 
M478.467133,447.007904 
	C482.042847,447.007904 485.618530,447.007904 489.194244,447.007904 
	C489.184082,446.771759 489.173950,446.535583 489.163788,446.299438 
	C480.467041,446.299438 471.770325,446.299438 463.073608,446.299438 
	C463.073608,446.536957 463.073639,446.774445 463.073669,447.011963 
	C467.876190,447.011963 472.678741,447.011963 478.467133,447.007904 
z"/>
<path fill="#271F65" opacity="1.000000" stroke="none" 
	d="
M420.882660,589.029236 
	C420.868347,589.459900 420.854065,589.890564 420.737122,591.033081 
	C420.668365,597.514832 420.702301,603.284729 420.736206,609.054626 
	C420.712219,609.473145 420.688263,609.891602 420.548370,611.028748 
	C419.908203,614.470520 419.383911,617.193604 418.859650,619.916748 
	C413.946442,627.342041 406.439972,627.900574 398.523132,627.891052 
	C337.029236,627.817261 275.535248,627.835999 214.041290,627.827209 
	C207.708603,627.826294 201.368057,628.030579 195.045303,627.781128 
	C187.916199,627.499817 182.064957,624.873840 179.188248,616.835632 
	C178.958420,585.599792 178.824615,555.140625 178.836334,524.681519 
	C178.839447,516.580444 184.160217,511.240997 192.294968,511.064575 
	C200.946136,510.876923 209.604645,511.032074 218.259949,511.031006 
	C280.179047,511.023499 342.098175,511.006195 404.017273,511.013214 
	C415.172150,511.014465 420.063690,515.916504 420.344696,527.095642 
	C420.444672,531.072754 420.735870,535.045044 420.939758,539.019531 
	C420.911133,543.362793 420.882507,547.705994 420.775391,552.754822 
	C420.765350,554.316650 420.833801,555.172852 420.902222,556.029114 
	C420.877014,558.061218 420.851837,560.093323 420.729431,562.909485 
	C420.712433,566.132507 420.792633,568.571472 420.872803,571.010437 
	C420.870148,575.363464 420.867462,579.716553 420.775452,584.807983 
	C420.751587,586.707275 420.817108,587.868286 420.882660,589.029236 
M383.893738,573.987854 
	C383.898651,565.991455 383.903564,557.995117 383.964844,549.201233 
	C383.569489,545.098267 380.339050,545.942566 377.879333,545.929626 
	C364.248901,545.858032 350.617737,545.936951 336.986847,545.939392 
	C297.590210,545.946411 258.193451,545.908447 218.797180,546.029846 
	C216.614838,546.036560 214.436447,547.325500 212.092010,548.940247 
	C212.072586,556.379517 211.970154,563.819946 212.074142,571.257507 
	C212.116379,574.277527 212.751175,577.138123 217.609238,576.514648 
	C218.906860,576.737244 220.204315,577.153381 221.502136,577.154541 
	C273.943054,577.201660 326.384064,577.232300 378.824799,577.127930 
	C380.464813,577.124695 382.101959,575.676758 383.893738,573.987854 
z"/>
<path fill="#271F65" opacity="1.000000" stroke="none" 
	d="
M182.089615,383.056702 
	C183.827286,381.460938 185.564926,379.865173 188.000046,378.458862 
	C189.026566,378.692749 189.355621,378.776337 189.684662,378.776154 
	C261.484680,378.739899 333.284698,378.678467 405.084717,378.679474 
	C414.302948,378.679596 419.550323,383.845764 420.192902,393.096252 
	C420.422729,396.405121 420.657318,399.713654 420.889709,403.022339 
	C420.871765,403.758209 420.853821,404.494080 420.736633,405.987366 
	C420.725647,413.167664 420.813934,419.590515 420.902222,426.013397 
	C420.883453,427.392365 420.864685,428.771301 420.759827,430.840759 
	C420.742462,432.698853 420.811218,433.866486 420.880005,435.034088 
	C420.861359,439.702179 420.842682,444.370239 420.729614,449.891296 
	C420.522888,453.902008 420.353577,457.058960 420.308197,460.217712 
	C420.108551,474.111694 415.089996,479.290833 401.238617,479.302063 
	C333.094208,479.357239 264.949707,479.357147 196.805267,479.319824 
	C184.093185,479.312866 178.819229,474.002136 178.793106,461.413055 
	C178.749207,440.253357 178.578445,419.090118 178.934113,397.936279 
	C179.017776,392.960144 180.987534,388.015686 182.089615,383.056702 
M386.460205,443.237732 
	C386.656219,433.773865 386.943665,424.310516 386.994049,414.845886 
	C387.009674,411.907471 386.382111,408.965698 385.875946,405.689606 
	C385.875946,405.689606 385.885773,405.311890 385.311829,404.913940 
	C383.548370,404.921509 381.784882,404.929077 379.266968,405.080475 
	C378.503693,405.032379 377.740387,404.984283 376.240723,404.572327 
	C366.500183,404.691864 356.759644,404.811371 346.408997,405.089630 
	C345.908203,405.402466 345.407410,405.715302 344.546906,406.765411 
	C344.353668,417.562073 344.090210,428.358307 344.017914,439.155762 
	C344.000427,441.763763 344.615051,444.376038 345.086029,447.334503 
	C345.086029,447.334503 345.067749,447.712036 345.772614,448.147766 
	C351.717865,448.447510 357.664093,449.003174 363.608154,448.980957 
	C370.727478,448.954315 377.844971,448.434326 385.584259,447.701202 
	C385.755096,446.458923 385.925903,445.216614 386.460205,443.237732 
M272.774872,419.604675 
	C272.761688,411.146942 272.763672,411.107056 264.467377,410.692535 
	C261.318817,410.535248 258.158539,410.569336 255.003937,410.584259 
	C242.210541,410.644806 229.417282,410.739258 216.623901,410.803345 
	C213.691772,410.818024 211.926819,411.847626 211.970169,415.166779 
	C212.065674,422.478638 212.026352,429.792694 211.993439,437.105591 
	C211.978195,440.493805 213.676605,441.820312 216.955475,441.809235 
	C233.908707,441.752075 250.862274,441.731689 267.815460,441.784363 
	C271.172485,441.794800 272.722260,440.349152 272.717133,437.031830 
	C272.708679,431.547211 272.754333,426.062561 272.774872,419.604675 
z"/>
<path fill="#281F65" opacity="1.000000" stroke="none" 
	d="
M778.205200,617.213623 
	C737.211609,627.212097 701.622375,618.013245 671.426819,589.051086 
	C650.261414,568.750244 639.748779,543.266968 639.315247,514.391418 
	C638.703674,473.661224 656.527832,441.754425 690.275085,419.229767 
	C731.157043,391.942993 782.385437,395.674103 821.331970,428.752472 
	C847.386658,450.881378 861.848938,479.481232 860.606628,513.754333 
	C858.694641,566.501892 823.797424,604.314697 778.205200,617.213623 
M808.029785,567.024292 
	C808.029785,567.024292 807.927246,567.032349 808.243958,566.588867 
	C808.472961,566.307190 808.702026,566.025513 809.303467,565.046265 
	C810.180115,564.058105 811.056763,563.069885 811.910889,562.138916 
	C811.910889,562.138916 811.984192,562.238525 812.136719,561.705566 
	C812.410339,561.467468 812.683899,561.229309 813.286560,560.610474 
	C813.534424,560.384521 813.782288,560.158569 813.940491,560.021912 
	C813.940491,560.021912 813.850891,559.932373 814.533142,559.755920 
	C815.317627,558.440735 816.102112,557.125610 816.894043,555.910034 
	C816.894043,555.910034 816.794434,555.917175 817.408997,555.639832 
	C817.899658,554.692871 818.390320,553.745911 819.026428,552.895569 
	C819.026428,552.895569 818.929993,553.041138 819.205688,552.511353 
	C819.462891,551.969482 819.720093,551.427673 819.979431,550.958679 
	C819.979431,550.958679 819.906555,550.960510 820.546875,550.717957 
	C821.700134,549.145630 823.206604,547.724060 823.951904,545.977600 
	C831.086731,529.259094 835.891846,512.169556 829.916199,494.011932 
	C828.106384,488.512604 825.282593,483.346954 822.985779,478.035919 
	C822.985779,478.035919 822.958435,478.092712 822.915161,477.376923 
	C822.232544,476.267761 821.549927,475.158600 820.944519,474.064209 
	C820.944519,474.064209 820.929443,474.141235 820.878967,473.407318 
	C819.852600,471.970825 818.826233,470.534302 817.892334,469.102173 
	C817.892334,469.102173 817.887451,469.194611 817.816895,468.508972 
	C817.125366,467.696625 816.433838,466.884247 815.331482,465.917419 
	C815.086853,465.719452 814.962524,465.463165 814.885925,464.428345 
	C813.850403,463.308136 812.814880,462.187927 811.364136,460.926666 
	C811.106140,460.744965 810.968140,460.496613 810.567993,459.828796 
	C810.339050,459.569092 810.110107,459.309387 809.433838,458.873230 
	C809.146973,458.676758 808.995911,458.404846 808.613892,457.751129 
	C808.387085,457.523956 808.195007,457.270508 807.482117,456.684998 
	C806.310913,455.485138 805.139709,454.285278 803.927124,452.343292 
	C803.509216,448.674774 800.701599,448.362152 797.981750,448.003601 
	C797.981750,448.003601 798.025940,448.090240 797.634888,447.741180 
	C797.395325,447.487640 797.155823,447.234131 797.024231,446.966187 
	C797.024231,446.966187 797.038757,447.074127 796.528564,446.800751 
	C796.014099,446.534637 795.499573,446.268524 794.999939,445.993561 
	C794.999939,445.993561 794.999573,446.009552 794.624023,445.683197 
	C794.374512,445.463745 794.140442,445.228882 794.030579,445.092865 
	C794.030579,445.092865 793.916504,445.201721 793.635864,444.589996 
	C792.687988,444.102051 791.740112,443.614105 790.889893,443.121399 
	C790.889893,443.121399 790.894165,443.219025 790.678589,442.557495 
	C789.011292,441.283356 787.527954,439.473999 785.645142,438.827148 
	C777.230530,435.936096 768.719177,433.320618 760.210876,430.709717 
	C744.653381,425.935699 730.551636,431.781891 716.435913,437.011658 
	C714.391541,437.769043 712.811523,439.779510 710.924561,441.063019 
	C710.924561,441.063019 711.071594,440.970734 710.748047,441.365753 
	C710.508179,441.608795 710.268250,441.851868 709.748596,442.549438 
	C709.260559,442.728607 708.772522,442.907776 707.596191,443.164398 
	C706.762878,443.845551 705.929504,444.526703 705.094788,445.090302 
	C705.094788,445.090302 705.212341,445.089264 704.630859,445.307617 
	C704.080444,445.588257 703.529968,445.868927 703.339233,445.991516 
	C703.339233,445.991516 703.497681,446.351105 702.864624,446.503754 
	C702.267151,447.058746 701.669617,447.613770 700.972595,448.070404 
	C700.972595,448.070404 701.070740,447.970734 700.748962,448.359894 
	C700.507507,448.593933 700.266052,448.828003 700.012146,449.003418 
	C700.012146,449.003418 700.058350,449.041687 699.400024,449.171204 
	C698.629456,449.870941 697.858826,450.570679 696.797791,451.845062 
	C694.632507,453.929291 692.467285,456.013489 689.607300,458.267853 
	C688.755859,459.562012 687.904480,460.856201 686.953430,462.584137 
	C686.806030,462.874756 686.570312,463.037262 685.635010,463.343475 
	C685.109741,464.271606 684.584473,465.199768 684.000366,466.027405 
	C684.000366,466.027405 684.101013,465.968811 683.747681,466.360931 
	C683.493896,466.604095 683.240112,466.847260 682.972900,466.980133 
	C682.972900,466.980133 683.083130,466.966339 682.794067,467.496429 
	C682.544617,468.047211 682.295166,468.598022 682.044983,469.068939 
	C682.044983,469.068939 682.124878,469.068542 681.473572,469.312256 
	C680.681946,470.934174 679.890259,472.556091 678.972290,474.079773 
	C678.972290,474.079773 679.070251,473.953217 678.798462,474.498352 
	C678.549561,475.060699 678.300659,475.623047 678.014771,476.648224 
	C678.014771,476.648224 677.778687,477.048004 677.560547,477.426666 
	C677.402588,477.675934 677.204102,477.887146 676.981262,477.941132 
	C676.981262,477.941132 677.100586,477.957062 676.783813,478.493896 
	C676.548706,479.067963 676.313538,479.642029 676.064941,480.036407 
	C676.064941,480.036407 676.244629,480.023224 675.638794,480.417542 
	C674.708862,481.950195 673.439392,483.372711 672.901001,485.032440 
	C666.957275,503.353455 667.054016,521.626038 673.812378,539.731689 
	C674.403381,541.315063 675.853516,542.577759 677.082275,544.345825 
	C677.082275,544.345825 677.074646,544.743958 677.032959,545.494019 
	C677.019409,545.994202 677.005859,546.494385 676.945740,547.028809 
	C676.945740,547.028809 677.006897,547.009338 677.601013,546.987793 
	C677.798584,546.971741 677.996094,546.955627 678.666870,547.212463 
	C678.797363,547.730469 678.927917,548.248474 679.359131,549.145508 
	C679.532654,549.417358 679.702087,549.691833 680.061157,550.330933 
	C680.061157,550.330933 680.079651,550.741272 680.148438,551.421265 
	C680.790039,552.275330 681.431580,553.129456 682.499695,554.264771 
	C682.691345,554.722107 682.882996,555.179443 683.443481,556.079224 
	C683.654297,556.400391 683.865173,556.721497 683.992249,556.989929 
	C683.992249,556.989929 684.044739,556.905945 684.161072,557.568970 
	C684.846558,558.358704 685.532104,559.148499 686.730164,560.187134 
	C687.154114,560.798157 687.578125,561.409241 688.171265,562.669739 
	C688.904907,563.413574 689.638489,564.157349 690.885376,565.149963 
	C691.611755,566.015320 692.338074,566.880615 693.485168,568.118225 
	C693.742737,568.389893 694.000305,568.661499 694.756714,569.104980 
	C695.205811,569.631653 695.654968,570.158386 696.411499,571.323730 
	C697.160400,571.870117 697.909241,572.416504 699.111816,572.982361 
	C699.414001,573.297363 699.716248,573.612427 700.396973,574.267639 
	C700.621948,574.521423 700.846924,574.775208 700.970581,574.920227 
	C700.970581,574.920227 701.079285,574.818787 701.357788,575.431641 
	C702.305359,575.934570 703.252991,576.437439 704.809937,577.145020 
	C706.215149,578.136414 707.620300,579.127869 709.396606,580.394653 
	C709.645630,580.578613 709.870422,580.788513 709.979919,580.933167 
	C709.979919,580.933167 710.070862,580.841919 710.302795,581.496765 
	C714.418945,583.859253 718.277832,587.017212 722.695984,588.445679 
	C741.262085,594.448547 759.908020,594.969421 778.277893,587.404053 
	C780.009583,586.690857 781.427551,585.216187 783.341003,583.914429 
	C783.341003,583.914429 783.734558,583.922607 784.339600,583.720825 
	C784.911926,583.450317 785.484253,583.179749 786.050354,583.030640 
	C786.050354,583.030640 785.928894,583.024597 786.240295,582.697205 
	C786.466553,582.496948 786.708252,582.317505 787.291321,581.932495 
	C787.291321,581.932495 787.687805,581.913635 788.375427,581.838501 
	C789.242432,581.198730 790.109497,580.559021 791.274902,579.474487 
	C791.763977,579.290222 792.253113,579.106018 793.425781,578.834961 
	C794.256409,578.161682 795.087036,577.488403 795.910217,576.904236 
	C795.910217,576.904236 795.821167,576.896423 796.508545,576.822876 
	C797.310303,576.114258 798.112000,575.405701 799.146179,574.203064 
	C799.733093,573.793030 800.319946,573.382996 801.623413,572.877014 
	C802.719849,571.804688 803.816284,570.732361 805.036377,569.275696 
	C805.214783,569.044495 805.449951,568.931030 806.152283,568.574829 
	C806.445190,568.358276 806.738037,568.141785 807.023071,568.028442 
	C807.023071,568.028442 806.919861,568.020874 807.267029,567.634033 
	C807.518738,567.396606 807.770386,567.159119 808.029785,567.024292 
z"/>
<path fill="#271F65" opacity="1.000000" stroke="none" 
	d="
M556.052856,408.898773 
	C556.643250,402.828522 557.348450,396.766479 557.783875,390.685150 
	C558.078369,386.572632 559.166870,383.139130 563.390198,381.537598 
	C567.628723,379.930237 571.114624,381.068634 574.244995,384.246124 
	C588.622437,398.839813 603.029175,413.405029 617.509766,427.896149 
	C619.789368,430.177399 618.633423,431.543732 616.940002,433.247650 
	C601.678772,448.603424 586.451477,463.992889 571.107056,479.671143 
	C570.999878,479.969818 571.028137,479.934692 571.028137,479.934692 
	C561.036499,479.930206 558.206299,477.448517 557.525635,467.585266 
	C557.171021,462.446625 557.281311,457.277344 557.110718,452.124237 
	C556.928345,446.615906 555.357666,445.018402 549.848694,445.008148 
	C522.895203,444.957916 495.941620,444.965240 468.988068,444.944641 
	C462.156616,444.939392 462.160248,444.926575 462.159485,438.049164 
	C462.158752,431.393951 462.158081,424.738708 462.141479,418.083527 
	C462.124847,411.431305 462.196045,411.300720 468.716522,411.291534 
	C495.336639,411.254059 521.956909,411.272888 548.576843,411.187225 
	C550.837036,411.179962 553.095337,410.553619 555.670898,409.741425 
	C555.987305,409.267975 556.052856,408.898773 556.052856,408.898773 
z"/>
<path fill="#271F65" opacity="1.000000" stroke="none" 
	d="
M511.897888,528.320312 
	C520.215820,527.379456 523.727417,530.405762 523.939331,538.399475 
	C524.062805,543.059448 523.918030,547.726196 524.009521,552.387573 
	C524.125244,558.281189 525.611267,559.802612 531.485352,559.817932 
	C555.466431,559.880554 579.447754,559.874084 603.428955,559.905701 
	C611.118774,559.915833 611.124634,559.933594 611.127136,567.590759 
	C611.129395,574.585266 610.888916,581.589783 611.193726,588.570740 
	C611.388489,593.031799 609.687561,594.300415 605.411987,594.274292 
	C581.931641,594.130920 558.449829,594.214844 534.968567,594.221130 
	C534.135864,594.221375 533.303101,594.215820 532.470520,594.228882 
	C524.296448,594.356567 524.082458,594.568359 524.009888,602.650818 
	C523.969543,607.147034 523.960083,611.643738 523.895569,616.139648 
	C523.829346,620.752869 522.526001,624.796326 517.919189,626.758606 
	C513.475830,628.651428 509.794312,626.868896 506.625946,623.728394 
	C493.856110,611.071106 481.131287,598.368286 468.333008,585.739929 
	C466.217682,583.652710 463.818634,581.853027 461.845245,580.171509 
	C462.353699,578.706970 462.405853,578.168213 462.686615,577.807251 
	C466.113098,573.401978 469.138916,568.576416 473.104675,564.719421 
	C485.724609,552.445679 498.697662,540.534973 511.897888,528.320312 
z"/>
<path fill="#06051B" opacity="1.000000" stroke="none" 
	d="
M181.750153,383.161011 
	C180.987534,388.015686 179.017776,392.960144 178.934113,397.936279 
	C178.578445,419.090118 178.749207,440.253357 178.793106,461.413055 
	C178.819229,474.002136 184.093185,479.312866 196.805267,479.319824 
	C264.949707,479.357147 333.094208,479.357239 401.238617,479.302063 
	C415.089996,479.290833 420.108551,474.111694 420.308197,460.217712 
	C420.353577,457.058960 420.522888,453.902008 420.759583,450.354248 
	C422.098785,458.273468 424.144653,466.674561 418.832672,474.408722 
	C415.814972,478.802399 411.753632,481.031769 406.203186,481.025757 
	C335.300781,480.948700 264.398254,480.977051 193.495773,480.970612 
	C183.497543,480.969696 177.033035,474.488861 177.030869,464.482239 
	C177.025696,440.681641 177.040207,416.881042 177.030792,393.080444 
	C177.029236,389.139008 177.332626,385.369446 181.750153,383.161011 
z"/>
<path fill="#06051B" opacity="1.000000" stroke="none" 
	d="
M421.119873,538.646729 
	C420.735870,535.045044 420.444672,531.072754 420.344696,527.095642 
	C420.063690,515.916504 415.172150,511.014465 404.017273,511.013214 
	C342.098175,511.006195 280.179047,511.023499 218.259949,511.031006 
	C209.604645,511.032074 200.946136,510.876923 192.294968,511.064575 
	C184.160217,511.240997 178.839447,516.580444 178.836334,524.681519 
	C178.824615,555.140625 178.958420,585.599792 179.032104,616.527588 
	C178.361755,615.250244 177.124466,613.506531 177.117599,611.757935 
	C177.003998,582.851196 176.947113,553.943420 177.101868,525.037048 
	C177.160034,514.170654 181.953629,509.520813 193.269287,509.254730 
	C195.498123,509.323486 197.023956,509.255066 198.549805,509.186646 
	C199.176376,509.165070 199.802963,509.143494 201.246643,509.260071 
	C203.716965,509.522369 205.370117,509.754272 207.023407,509.755127 
	C272.783875,509.789551 338.544373,509.810364 404.304871,509.783600 
	C406.262207,509.782806 408.219360,509.254547 410.176636,508.972229 
	C417.094513,510.665466 423.012634,517.606445 422.025574,524.986267 
	C421.439301,529.369385 421.519470,533.841736 421.119873,538.646729 
z"/>
<path fill="#06051B" opacity="1.000000" stroke="none" 
	d="
M421.139038,402.803406 
	C420.657318,399.713654 420.422729,396.405121 420.192902,393.096252 
	C419.550323,383.845764 414.302948,378.679596 405.084717,378.679474 
	C333.284698,378.678467 261.484680,378.739899 189.684662,378.776154 
	C189.355621,378.776337 189.026566,378.692749 188.332993,378.462280 
	C188.337677,377.634216 188.706879,376.992157 189.668610,376.395325 
	C193.074814,376.618164 195.888443,376.949615 198.702209,376.950836 
	C268.781525,376.981262 338.860870,376.976837 408.940216,376.978607 
	C416.569122,378.309998 420.336121,381.589233 421.334961,388.990906 
	C421.935791,393.443420 421.408691,398.048157 421.139038,402.803406 
z"/>
<path fill="#111C5A" opacity="1.000000" stroke="none" 
	d="
M408.632050,376.702820 
	C338.860870,376.976837 268.781525,376.981262 198.702209,376.950836 
	C195.888443,376.949615 193.074814,376.618164 189.871979,376.207642 
	C260.112823,375.998047 330.742828,376.017731 401.372803,376.060638 
	C403.689880,376.062042 406.006866,376.299561 408.632050,376.702820 
z"/>
<path fill="#111C5A" opacity="1.000000" stroke="none" 
	d="
M409.690247,509.015472 
	C408.219360,509.254547 406.262207,509.782806 404.304871,509.783600 
	C338.544373,509.810364 272.783875,509.789551 207.023407,509.755127 
	C205.370117,509.754272 203.716965,509.522369 201.716797,509.271973 
	C270.647858,509.116699 339.925842,509.087708 409.690247,509.015472 
z"/>
<path fill="#403677" opacity="1.000000" stroke="none" 
	d="
M556.049500,408.439331 
	C556.052856,408.898773 555.987305,409.267975 555.987793,409.455933 
	C544.178528,409.783112 532.369202,409.998169 520.559143,410.043427 
	C503.574707,410.108459 486.589783,410.049866 469.605072,410.044220 
	C467.979401,410.043671 466.353760,410.044189 464.726379,408.968079 
	C494.575348,408.968079 524.424316,408.968079 554.878052,408.968079 
	C554.878052,403.505005 554.878052,398.593018 554.878052,393.681030 
	C555.267395,393.683838 555.656799,393.686615 556.046143,393.689423 
	C556.046143,398.452911 556.046143,403.216400 556.049500,408.439331 
z"/>
<path fill="#06051B" opacity="1.000000" stroke="none" 
	d="
M421.157379,425.796997 
	C420.813934,419.590515 420.725647,413.167664 420.762421,406.354736 
	C421.062500,412.503326 421.237518,419.041962 421.157379,425.796997 
z"/>
<path fill="#06051B" opacity="1.000000" stroke="none" 
	d="
M420.937988,608.767883 
	C420.702301,603.284729 420.668365,597.514832 420.761749,591.355591 
	C420.972626,596.804504 421.056183,602.642822 420.937988,608.767883 
z"/>
<path fill="#281F65" opacity="1.000000" stroke="none" 
	d="
M477.974182,447.009949 
	C472.678741,447.011963 467.876190,447.011963 463.073669,447.011963 
	C463.073639,446.774445 463.073608,446.536957 463.073608,446.299438 
	C471.770325,446.299438 480.467041,446.299438 489.163788,446.299438 
	C489.173950,446.535583 489.184082,446.771759 489.194244,447.007904 
	C485.618530,447.007904 482.042847,447.007904 477.974182,447.009949 
z"/>
<path fill="#06051B" opacity="1.000000" stroke="none" 
	d="
M421.170532,570.804321 
	C420.792633,568.571472 420.712433,566.132507 420.754456,563.344543 
	C423.759613,565.320740 423.539825,567.887451 421.170532,570.804321 
z"/>
<path fill="#06051B" opacity="1.000000" stroke="none" 
	d="
M419.180786,619.771851 
	C419.383911,617.193604 419.908203,614.470520 420.561584,611.343079 
	C422.657104,614.158142 422.223694,617.049072 419.180786,619.771851 
z"/>
<path fill="#06051B" opacity="1.000000" stroke="none" 
	d="
M421.080078,588.810791 
	C420.817108,587.868286 420.751587,586.707275 420.801575,585.271851 
	C421.037201,586.195679 421.157318,587.393982 421.080078,588.810791 
z"/>
<path fill="#06051B" opacity="1.000000" stroke="none" 
	d="
M421.044983,434.766418 
	C420.811218,433.866486 420.742462,432.698853 420.786621,431.253784 
	C421.002991,432.150452 421.106506,433.324585 421.044983,434.766418 
z"/>
<path fill="#06051B" opacity="1.000000" stroke="none" 
	d="
M421.047058,555.793213 
	C420.833801,555.172852 420.765350,554.316650 420.801880,553.217102 
	C421.001862,553.835022 421.096863,554.696167 421.047058,555.793213 
z"/>
<path fill="#111C5A" opacity="1.000000" stroke="none" 
	d="
M198.189819,509.204895 
	C197.023956,509.255066 195.498123,509.323486 193.703552,509.288605 
	C194.899841,509.197937 196.364822,509.210571 198.189819,509.204895 
z"/>
<path fill="#271F65" opacity="1.000000" stroke="none" 
	d="
M570.981812,479.982910 
	C570.963806,479.995972 571.226135,480.153198 571.226135,480.153198 
	C571.226135,480.153198 571.062195,480.100922 571.045166,480.017822 
	C571.028137,479.934692 570.999878,479.969818 570.981812,479.982910 
z"/>
<path fill="#000000" opacity="1.000000" stroke="none" 
	d="
M383.908508,549.998718 
	C383.903564,557.995117 383.898651,565.991455 383.625305,574.460876 
	C383.356903,574.933899 382.976776,575.001953 382.509888,575.001953 
	C328.421387,575.008362 274.799713,575.007629 221.178116,575.061279 
	C219.795715,575.062683 218.413910,575.659729 217.035172,575.959351 
	C217.038513,575.939758 217.007736,575.914124 217.007736,575.914124 
	C212.751175,577.138123 212.116379,574.277527 212.074142,571.257507 
	C211.970154,563.819946 212.072586,556.379517 212.365509,548.474121 
	C212.639023,548.008057 213.022812,547.990234 213.489960,547.983765 
	C270.299835,547.981201 326.642548,547.985107 382.942627,548.198425 
	C383.236145,548.938110 383.572327,549.468384 383.908508,549.998718 
z"/>
<path fill="#020105" opacity="1.000000" stroke="none" 
	d="
M383.936676,549.599976 
	C383.572327,549.468384 383.236145,548.938110 382.663879,547.880859 
	C381.275818,547.240051 380.123840,547.026794 378.971832,547.026489 
	C325.044495,547.010986 271.117157,547.006592 217.189850,547.055542 
	C215.800552,547.056824 214.411819,547.665100 213.022812,547.990234 
	C213.022812,547.990234 212.639023,548.008057 212.447617,548.012817 
	C214.436447,547.325500 216.614838,546.036560 218.797180,546.029846 
	C258.193451,545.908447 297.590210,545.946411 336.986847,545.939392 
	C350.617737,545.936951 364.248901,545.858032 377.879333,545.929626 
	C380.339050,545.942566 383.569489,545.098267 383.936676,549.599976 
z"/>
<path fill="#06051B" opacity="1.000000" stroke="none" 
	d="
M382.976776,575.001953 
	C382.976776,575.001953 383.356903,574.933899 383.548645,574.918091 
	C382.101959,575.676758 380.464813,577.124695 378.824799,577.127930 
	C326.384064,577.232300 273.943054,577.201660 221.502136,577.154541 
	C220.204315,577.153381 218.906860,576.737244 217.308487,576.214355 
	C217.007736,575.914124 217.038513,575.939758 217.501678,575.966187 
	C270.899628,575.993042 323.834412,576.004700 376.769165,575.952026 
	C378.838654,575.949951 380.907593,575.332581 382.976776,575.001953 
z"/>
<path fill="#020105" opacity="1.000000" stroke="none" 
	d="
M272.776001,420.091309 
	C272.754333,426.062561 272.708679,431.547211 272.717133,437.031830 
	C272.722260,440.349152 271.172485,441.794800 267.815460,441.784363 
	C250.862274,441.731689 233.908707,441.752075 216.955475,441.809235 
	C213.676605,441.820312 211.978195,440.493805 211.993439,437.105591 
	C212.026352,429.792694 212.065674,422.478638 211.970169,415.166779 
	C211.926819,411.847626 213.691772,410.818024 216.623901,410.803345 
	C229.417282,410.739258 242.210541,410.644806 255.003937,410.584259 
	C258.158539,410.569336 261.318817,410.535248 264.467377,410.692535 
	C272.763672,411.107056 272.761688,411.146942 272.776001,420.091309 
z"/>
<path fill="#FD0C82" opacity="1.000000" stroke="none" 
	d="
M376.977112,404.936157 
	C377.740387,404.984283 378.503693,405.032379 380.062653,405.062988 
	C382.534149,405.134308 384.209961,405.223083 385.885773,405.311890 
	C385.885773,405.311890 385.875946,405.689606 385.914978,406.321838 
	C386.001556,419.294159 386.049133,431.634247 386.096680,443.974335 
	C385.925903,445.216614 385.755096,446.458923 384.811066,447.855011 
	C371.047821,447.909912 358.057800,447.810974 345.067749,447.712036 
	C345.067749,447.712036 345.086029,447.334503 345.066498,446.695221 
	C345.000153,432.713348 344.953369,419.370728 344.906586,406.028137 
	C345.407410,405.715302 345.908203,405.402466 347.178467,405.065948 
	C357.624298,405.006897 367.300720,404.971527 376.977112,404.936157 
z"/>
<path fill="#111C5A" opacity="1.000000" stroke="none" 
	d="
M344.726746,406.396790 
	C344.953369,419.370728 345.000153,432.713348 344.992981,446.521118 
	C344.615051,444.376038 344.000427,441.763763 344.017914,439.155762 
	C344.090210,428.358307 344.353668,417.562073 344.726746,406.396790 
z"/>
<path fill="#111C5A" opacity="1.000000" stroke="none" 
	d="
M345.420166,447.929901 
	C358.057800,447.810974 371.047821,447.909912 384.500549,448.068420 
	C377.844971,448.434326 370.727478,448.954315 363.608154,448.980957 
	C357.664093,449.003174 351.717865,448.447510 345.420166,447.929901 
z"/>
<path fill="#111C5A" opacity="1.000000" stroke="none" 
	d="
M386.278442,443.606018 
	C386.049133,431.634247 386.001556,419.294159 386.001526,406.489746 
	C386.382111,408.965698 387.009674,411.907471 386.994049,414.845886 
	C386.943665,424.310516 386.656219,433.773865 386.278442,443.606018 
z"/>
<path fill="#111C5A" opacity="1.000000" stroke="none" 
	d="
M376.608917,404.754242 
	C367.300720,404.971527 357.624298,405.006897 347.483521,404.986572 
	C356.759644,404.811371 366.500183,404.691864 376.608917,404.754242 
z"/>
<path fill="#111C5A" opacity="1.000000" stroke="none" 
	d="
M385.598816,405.112915 
	C384.209961,405.223083 382.534149,405.134308 380.439880,404.991089 
	C381.784882,404.929077 383.548370,404.921509 385.598816,405.112915 
z"/>
<path fill="#FD0C82" opacity="1.000000" stroke="none" 
	d="
M803.968445,453.085449 
	C805.139709,454.285278 806.310913,455.485138 807.851562,457.066223 
	C808.417053,457.721985 808.670349,457.925293 808.980774,458.057465 
	C808.995911,458.404846 809.146973,458.676758 809.765137,459.208252 
	C810.380981,459.756042 810.665527,459.968842 810.950073,460.181610 
	C810.968140,460.496613 811.106140,460.744965 811.711426,461.293335 
	C813.025269,462.822845 813.991821,463.985687 814.958374,465.148499 
	C814.962524,465.463165 815.086853,465.719452 815.662231,466.290649 
	C816.624512,467.507446 817.255981,468.351044 817.887451,469.194611 
	C817.887451,469.194611 817.892334,469.102173 817.959351,469.416321 
	C818.994080,471.200714 819.961792,472.670990 820.929443,474.141235 
	C820.929443,474.141235 820.944519,474.064209 820.979004,474.380188 
	C821.661804,475.828339 822.310120,476.960541 822.958435,478.092712 
	C822.958435,478.092712 822.985779,478.035919 822.998291,478.405273 
	C825.337646,487.183655 828.654419,495.462616 829.780334,504.029510 
	C831.961182,520.622681 827.794678,536.279724 819.906555,550.960510 
	C819.906555,550.960510 819.979431,550.958679 819.729736,551.118408 
	C819.296692,551.865845 819.113342,552.453491 818.930054,553.041138 
	C818.929993,553.041138 819.026428,552.895569 818.685242,553.019836 
	C817.827515,554.068420 817.310974,554.992798 816.794434,555.917175 
	C816.794434,555.917175 816.894043,555.910034 816.610901,556.026184 
	C815.502136,557.405701 814.676514,558.669006 813.850891,559.932373 
	C813.850891,559.932373 813.940491,560.021912 813.730225,560.063354 
	C813.332458,560.400330 813.144958,560.695740 812.957458,560.991150 
	C812.683899,561.229309 812.410339,561.467468 812.047729,561.941101 
	C811.958740,562.176636 811.933350,562.081665 811.933350,562.081665 
	C811.056763,563.069885 810.180115,564.058105 808.867004,565.539978 
	C808.262756,566.366577 808.094971,566.699463 807.927246,567.032349 
	C807.927246,567.032349 808.029785,567.024292 807.744629,567.038147 
	C807.279541,567.375000 807.099731,567.697937 806.919922,568.020874 
	C806.919861,568.020874 807.023071,568.028442 806.742188,568.035034 
	C806.221497,568.339478 805.981750,568.637451 805.741943,568.935364 
	C805.449951,568.931030 805.214783,569.044495 804.687195,569.628784 
	C803.194275,570.978821 802.050598,571.975891 800.906860,572.972900 
	C800.319946,573.382996 799.733093,573.793030 798.713745,574.544922 
	C797.461243,575.556641 796.641174,576.226501 795.821167,576.896423 
	C795.821167,576.896423 795.910217,576.904236 795.609497,576.969421 
	C794.453247,577.663696 793.597717,578.292725 792.742188,578.921753 
	C792.253113,579.106018 791.763977,579.290222 790.811035,579.784912 
	C789.460693,580.701477 788.574280,581.307556 787.687805,581.913696 
	C787.687805,581.913635 787.291321,581.932495 786.884399,582.086182 
	C786.159607,582.407104 785.976746,582.668640 785.928894,583.024597 
	C785.928894,583.024597 786.050354,583.030640 785.721924,582.984314 
	C784.840515,583.266174 784.287537,583.594360 783.734558,583.922607 
	C783.734558,583.922607 783.341003,583.914429 782.803040,584.062073 
	C773.503784,586.470215 764.860229,589.657227 755.955505,590.789551 
	C739.693970,592.857178 724.433228,588.481812 710.070862,580.841919 
	C710.070862,580.841919 709.979919,580.933167 709.940430,580.738770 
	C709.609192,580.402710 709.317322,580.260986 709.025513,580.119263 
	C707.620300,579.127869 706.215149,578.136414 704.307617,576.793274 
	C702.896667,575.900635 701.987976,575.359741 701.079285,574.818787 
	C701.079285,574.818787 700.970581,574.920227 700.947144,574.710510 
	C700.621887,574.309692 700.320190,574.118530 700.018433,573.927429 
	C699.716248,573.612427 699.414001,573.297363 698.687012,572.684387 
	C697.542786,571.819336 696.823425,571.252197 696.104065,570.685059 
	C695.654968,570.158386 695.205811,569.631653 694.364563,568.769531 
	C693.669739,568.204651 693.367126,567.975342 693.064453,567.745972 
	C692.338074,566.880615 691.611755,566.015320 690.484497,564.746216 
	C689.389709,563.568420 688.695923,562.794373 688.002075,562.020264 
	C687.578125,561.409241 687.154114,560.798157 686.348999,559.772461 
	C685.326782,558.540527 684.685791,557.723267 684.044739,556.905945 
	C684.044739,556.905945 683.992249,556.989929 683.953308,556.727417 
	C683.634460,556.188843 683.354614,555.912842 683.074707,555.636780 
	C682.882996,555.179443 682.691345,554.722107 682.200317,553.811035 
	C681.293884,552.485291 680.686768,551.613281 680.079651,550.741272 
	C680.079651,550.741272 680.061157,550.330933 679.937378,549.893066 
	C679.561890,549.225647 679.310120,548.996094 679.058411,548.766479 
	C678.927917,548.248474 678.797363,547.730469 678.359863,546.765320 
	C677.726807,545.793457 677.400696,545.268677 677.074646,544.743958 
	C677.074646,544.743958 677.082275,544.345825 676.943298,543.803284 
	C667.731323,522.260193 668.056091,501.176514 676.244629,480.023224 
	C676.244629,480.023224 676.064941,480.036407 676.337463,479.933716 
	C676.773560,479.206360 676.937073,478.581696 677.100586,477.957062 
	C677.100586,477.957062 676.981262,477.941132 677.182129,477.898132 
	C677.660217,477.657379 677.792114,477.388336 677.778687,477.048004 
	C677.778687,477.048004 678.014771,476.648224 678.276245,476.205383 
	C678.715271,475.159454 678.892761,474.556335 679.070251,473.953217 
	C679.070251,473.953217 678.972290,474.079773 679.305786,473.932129 
	C680.467896,472.212494 681.296387,470.640533 682.124878,469.068542 
	C682.124878,469.068542 682.044983,469.068939 682.303589,468.916748 
	C682.735840,468.165131 682.909485,467.565735 683.083130,466.966339 
	C683.083130,466.966339 682.972900,466.980133 683.269043,466.983459 
	C683.743774,466.647491 683.922424,466.308167 684.101074,465.968811 
	C684.101013,465.968811 684.000366,466.027405 684.290222,465.894531 
	C685.135498,464.865021 685.690918,463.968353 686.246338,463.071716 
	C686.570312,463.037262 686.806030,462.874756 687.280334,462.193115 
	C688.505493,460.567322 689.403809,459.332520 690.302063,458.097717 
	C692.467285,456.013489 694.632507,453.929291 697.228882,451.428406 
	C698.459412,450.355103 699.258850,449.698395 700.058350,449.041687 
	C700.058350,449.041687 700.012146,449.003418 700.275269,448.943115 
	C700.715820,448.578796 700.893311,448.274780 701.070740,447.970734 
	C701.070740,447.970734 700.972595,448.070404 701.306824,448.011047 
	C702.259949,447.418152 702.878784,446.884644 703.497681,446.351105 
	C703.497681,446.351105 703.339233,445.991516 703.493164,446.183319 
	C704.168762,445.946503 704.690552,445.517883 705.212341,445.089233 
	C705.212341,445.089264 705.094788,445.090302 705.401489,445.036682 
	C706.566895,444.351013 707.425720,443.718964 708.284485,443.086975 
	C708.772522,442.907776 709.260559,442.728607 710.153931,442.234650 
	C710.730103,441.603485 710.900879,441.287109 711.071655,440.970764 
	C711.071594,440.970734 710.924561,441.063019 711.341125,441.050659 
	C720.846313,436.617767 730.138062,432.952362 740.357910,431.983490 
	C758.449280,430.268402 775.142578,434.555542 790.894165,443.219025 
	C790.894165,443.219025 790.889893,443.121399 791.015503,443.390900 
	C792.066223,444.174164 792.991333,444.687927 793.916504,445.201721 
	C793.916504,445.201721 794.030579,445.092865 794.046936,445.300659 
	C794.375366,445.675476 794.687500,445.842499 794.999573,446.009521 
	C794.999573,446.009552 794.999939,445.993561 795.202026,446.214294 
	C795.948975,446.648041 796.493835,446.861084 797.038757,447.074127 
	C797.038757,447.074127 797.024231,446.966187 797.032593,447.254700 
	C797.369324,447.725555 797.697632,447.907898 798.025940,448.090240 
	C798.025940,448.090240 797.981750,448.003601 798.133362,448.294006 
	C800.179443,450.084778 802.073975,451.585114 803.968445,453.085449 
M720.018799,549.546509 
	C720.333801,549.754883 720.648743,549.963196 721.148071,550.615723 
	C721.357605,550.871216 721.619324,551.050476 722.203430,551.691040 
	C722.776733,551.850037 723.349976,552.009094 723.915222,552.085449 
	C723.915222,552.085449 723.832581,552.093872 724.217407,552.641113 
	C725.812378,553.411804 727.407288,554.182495 729.274597,555.135010 
	C729.274597,555.135010 729.600037,555.098633 730.106018,555.655090 
	C744.441895,561.782776 758.542419,561.527222 772.725403,554.114624 
	C772.725403,554.114624 773.012939,553.919617 773.599426,553.840149 
	C773.889282,553.575195 774.179077,553.310242 774.962646,553.064331 
	C775.329163,552.775208 775.695679,552.486084 776.674561,551.997864 
	C777.513550,551.349915 778.352539,550.701904 779.663757,549.951904 
	C780.096497,549.490784 780.529175,549.029602 781.561035,548.291504 
	C782.047729,547.864685 782.534424,547.437866 783.495544,546.875366 
	C783.797119,546.690491 783.973145,546.422974 784.555420,545.804443 
	C785.070435,545.213928 785.585449,544.623413 786.553101,543.832153 
	C786.831848,543.613281 786.977966,543.326782 787.489746,542.602356 
	C788.086243,541.762817 788.682739,540.923218 789.689758,539.932068 
	C789.933044,539.732300 790.052551,539.475037 790.571289,538.792542 
	C791.108337,537.878784 791.645386,536.965027 792.652527,535.788757 
	C792.795959,535.282898 792.939392,534.777039 793.666443,533.838074 
	C794.324158,532.506104 795.101929,531.219177 795.620972,529.835205 
	C800.642334,516.446045 800.928650,503.349823 793.046448,490.381134 
	C793.046448,490.381134 792.909912,489.988708 792.887756,489.356842 
	C792.295105,488.507843 791.702515,487.658813 791.100708,486.902924 
	C791.100708,486.902924 791.193848,486.911621 790.995361,486.307373 
	C790.362488,485.480408 789.729614,484.653442 789.088562,483.910522 
	C789.088562,483.910522 789.172668,483.918304 788.952820,483.346771 
	C788.294861,482.580353 787.636902,481.813934 787.006409,481.004211 
	C787.006409,481.004211 786.957153,481.018494 786.732666,480.484283 
	C786.157349,479.977020 785.582031,479.469757 784.748352,478.360992 
	C782.894409,476.890015 781.040527,475.419037 778.807312,473.435516 
	C777.893555,472.904724 776.979797,472.373932 775.976990,471.936005 
	C775.976990,471.936005 776.069641,472.025269 775.899719,471.559265 
	C775.696594,471.249329 775.410767,471.113708 774.690247,470.940430 
	C774.690247,470.940430 774.279724,470.922363 773.870728,470.390503 
	C773.234680,470.233765 772.598572,470.076996 772.142883,470.024048 
	C772.142883,470.024048 772.246826,469.843811 771.801331,469.274750 
	C755.354126,461.878082 739.305542,461.805664 723.902039,472.027496 
	C723.902039,472.027496 724.043213,471.934998 723.439575,471.977905 
	C722.944763,472.315918 722.449890,472.653931 721.419434,473.073334 
	C720.922241,473.582672 720.425049,474.091980 719.389526,474.866608 
	C718.941956,475.249176 718.494324,475.631744 717.442383,476.242432 
	C716.296509,477.501678 715.150574,478.760925 713.503723,480.383881 
	C712.923096,481.232178 712.342468,482.080505 711.339905,483.073792 
	C711.078613,483.266113 710.951721,483.524445 710.441895,484.233124 
	C710.264893,484.832123 710.087952,485.431122 710.015747,485.822357 
	C710.015747,485.822357 709.808105,485.717438 709.275269,486.082397 
	C708.783447,487.024200 708.291626,487.966034 707.903320,489.024200 
	C707.903320,489.024200 708.019714,488.920868 707.514099,489.062164 
	C707.375244,489.366547 707.236389,489.670929 706.905273,490.279022 
	C706.905273,490.279022 706.917969,490.638275 706.451416,490.959442 
	C706.322327,491.299927 706.193237,491.640411 705.710754,492.534729 
	C705.446960,493.339996 705.183105,494.145233 704.452820,495.519073 
	C699.778442,509.230316 700.349304,522.478699 707.967590,535.043701 
	C707.967590,535.043701 707.901855,535.031494 708.045410,535.676086 
	C708.668945,536.557190 709.292542,537.438354 709.961182,538.843872 
	C710.281555,539.235718 710.601929,539.627502 711.095825,540.545837 
	C711.405273,540.722839 711.714783,540.899841 711.910339,540.979980 
	C711.910339,540.979980 711.813110,541.093689 712.076172,541.718262 
	C714.331543,543.905640 716.586914,546.093079 719.018127,548.167175 
	C719.018127,548.167175 718.905090,547.991150 718.988525,548.582642 
	C719.330933,548.751160 719.673401,548.919739 720.019165,548.983459 
	C720.019165,548.983459 719.914429,548.979858 720.018799,549.546509 
z"/>
<path fill="#111C5A" opacity="1.000000" stroke="none" 
	d="
M790.786377,442.888245 
	C775.142578,434.555542 758.449280,430.268402 740.357910,431.983490 
	C730.138062,432.952362 720.846313,436.617767 711.387207,441.124207 
	C712.811523,439.779510 714.391541,437.769043 716.435913,437.011658 
	C730.551636,431.781891 744.653381,425.935699 760.210876,430.709717 
	C768.719177,433.320618 777.230530,435.936096 785.645142,438.827148 
	C787.527954,439.473999 789.011292,441.283356 790.786377,442.888245 
z"/>
<path fill="#111C5A" opacity="1.000000" stroke="none" 
	d="
M820.226685,550.839233 
	C827.794678,536.279724 831.961182,520.622681 829.780334,504.029510 
	C828.654419,495.462616 825.337646,487.183655 822.966980,478.401550 
	C825.282593,483.346954 828.106384,488.512604 829.916199,494.011932 
	C835.891846,512.169556 831.086731,529.259094 823.951904,545.977600 
	C823.206604,547.724060 821.700134,549.145630 820.226685,550.839233 
z"/>
<path fill="#111C5A" opacity="1.000000" stroke="none" 
	d="
M710.186829,581.169312 
	C724.433228,588.481812 739.693970,592.857178 755.955505,590.789551 
	C764.860229,589.657227 773.503784,586.470215 782.628174,584.152405 
	C781.427551,585.216187 780.009583,586.690857 778.277893,587.404053 
	C759.908020,594.969421 741.262085,594.448547 722.695984,588.445679 
	C718.277832,587.017212 714.418945,583.859253 710.186829,581.169312 
z"/>
<path fill="#111C5A" opacity="1.000000" stroke="none" 
	d="
M675.941711,480.220398 
	C668.056091,501.176514 667.731323,522.260193 676.854431,543.625122 
	C675.853516,542.577759 674.403381,541.315063 673.812378,539.731689 
	C667.054016,521.626038 666.957275,503.353455 672.901001,485.032440 
	C673.439392,483.372711 674.708862,481.950195 675.941711,480.220398 
z"/>
<path fill="#111C5A" opacity="1.000000" stroke="none" 
	d="
M803.947754,452.714355 
	C802.073975,451.585114 800.179443,450.084778 798.090088,448.316193 
	C800.701599,448.362152 803.509216,448.674774 803.947754,452.714355 
z"/>
<path fill="#111C5A" opacity="1.000000" stroke="none" 
	d="
M681.799194,469.190430 
	C681.296387,470.640533 680.467896,472.212494 679.369019,473.981232 
	C679.890259,472.556091 680.681946,470.934174 681.799194,469.190430 
z"/>
<path fill="#111C5A" opacity="1.000000" stroke="none" 
	d="
M820.904175,473.774292 
	C819.961792,472.670990 818.994080,471.200714 817.913208,469.414124 
	C818.826233,470.534302 819.852600,471.970825 820.904175,473.774292 
z"/>
<path fill="#111C5A" opacity="1.000000" stroke="none" 
	d="
M814.922119,464.788422 
	C813.991821,463.985687 813.025269,462.822845 811.919006,461.363892 
	C812.814880,462.187927 813.850403,463.308136 814.922119,464.788422 
z"/>
<path fill="#111C5A" opacity="1.000000" stroke="none" 
	d="
M689.954712,458.182800 
	C689.403809,459.332520 688.505493,460.567322 687.330200,461.976257 
	C687.904480,460.856201 688.755859,459.562012 689.954712,458.182800 
z"/>
<path fill="#111C5A" opacity="1.000000" stroke="none" 
	d="
M801.265137,572.924927 
	C802.050598,571.975891 803.194275,570.978821 804.625366,569.820923 
	C803.816284,570.732361 802.719849,571.804688 801.265137,572.924927 
z"/>
<path fill="#111C5A" opacity="1.000000" stroke="none" 
	d="
M814.192017,559.844116 
	C814.676514,558.669006 815.502136,557.405701 816.607178,555.976379 
	C816.102112,557.125610 815.317627,558.440735 814.192017,559.844116 
z"/>
<path fill="#111C5A" opacity="1.000000" stroke="none" 
	d="
M822.936768,477.734802 
	C822.310120,476.960541 821.661804,475.828339 820.940430,474.372772 
	C821.549927,475.158600 822.232544,476.267761 822.936768,477.734802 
z"/>
<path fill="#111C5A" opacity="1.000000" stroke="none" 
	d="
M796.164856,576.859619 
	C796.641174,576.226501 797.461243,575.556641 798.597534,574.791931 
	C798.112000,575.405701 797.310303,576.114258 796.164856,576.859619 
z"/>
<path fill="#111C5A" opacity="1.000000" stroke="none" 
	d="
M788.031616,581.876099 
	C788.574280,581.307556 789.460693,580.701477 790.661804,580.007324 
	C790.109497,580.559021 789.242432,581.198730 788.031616,581.876099 
z"/>
<path fill="#111C5A" opacity="1.000000" stroke="none" 
	d="
M793.083984,578.878357 
	C793.597717,578.292725 794.453247,577.663696 795.613220,576.924866 
	C795.087036,577.488403 794.256409,578.161682 793.083984,578.878357 
z"/>
<path fill="#111C5A" opacity="1.000000" stroke="none" 
	d="
M699.729187,449.106445 
	C699.258850,449.698395 698.459412,450.355103 697.374023,451.141113 
	C697.858826,450.570679 698.629456,449.870941 699.729187,449.106445 
z"/>
<path fill="#111C5A" opacity="1.000000" stroke="none" 
	d="
M684.102905,557.237427 
	C684.685791,557.723267 685.326782,558.540527 686.092712,559.648071 
	C685.532104,559.148499 684.846558,558.358704 684.102905,557.237427 
z"/>
<path fill="#111C5A" opacity="1.000000" stroke="none" 
	d="
M701.218506,575.125244 
	C701.987976,575.359741 702.896667,575.900635 704.002930,576.690918 
	C703.252991,576.437439 702.305359,575.934570 701.218506,575.125244 
z"/>
<path fill="#111C5A" opacity="1.000000" stroke="none" 
	d="
M707.940308,443.125671 
	C707.425720,443.718964 706.566895,444.351013 705.402161,445.095459 
	C705.929504,444.526703 706.762878,443.845551 707.940308,443.125671 
z"/>
<path fill="#111C5A" opacity="1.000000" stroke="none" 
	d="
M680.114014,551.081299 
	C680.686768,551.613281 681.293884,552.485291 681.987061,553.670410 
	C681.431580,553.129456 680.790039,552.275330 680.114014,551.081299 
z"/>
<path fill="#111C5A" opacity="1.000000" stroke="none" 
	d="
M793.776184,444.895874 
	C792.991333,444.687927 792.066223,444.174164 790.966675,443.393280 
	C791.740112,443.614105 792.687988,444.102051 793.776184,444.895874 
z"/>
<path fill="#111C5A" opacity="1.000000" stroke="none" 
	d="
M817.101685,555.778503 
	C817.310974,554.992798 817.827515,554.068420 818.612549,552.971558 
	C818.390320,553.745911 817.899658,554.692871 817.101685,555.778503 
z"/>
<path fill="#111C5A" opacity="1.000000" stroke="none" 
	d="
M688.086670,562.344971 
	C688.695923,562.794373 689.389709,563.568420 690.227844,564.621826 
	C689.638489,564.157349 688.904907,563.413574 688.086670,562.344971 
z"/>
<path fill="#111C5A" opacity="1.000000" stroke="none" 
	d="
M685.940674,463.207581 
	C685.690918,463.968353 685.135498,464.865021 684.319641,465.944794 
	C684.584473,465.199768 685.109741,464.271606 685.940674,463.207581 
z"/>
<path fill="#111C5A" opacity="1.000000" stroke="none" 
	d="
M817.852173,468.851807 
	C817.255981,468.351044 816.624512,467.507446 815.867676,466.367889 
	C816.433838,466.884247 817.125366,467.696625 817.852173,468.851807 
z"/>
<path fill="#111C5A" opacity="1.000000" stroke="none" 
	d="
M696.257812,571.004395 
	C696.823425,571.252197 697.542786,571.819336 698.460205,572.674683 
	C697.909241,572.416504 697.160400,571.870117 696.257812,571.004395 
z"/>
<path fill="#111C5A" opacity="1.000000" stroke="none" 
	d="
M703.181152,446.427429 
	C702.878784,446.884644 702.259949,447.418152 701.356567,448.060242 
	C701.669617,447.613770 702.267151,447.058746 703.181152,446.427429 
z"/>
<path fill="#111C5A" opacity="1.000000" stroke="none" 
	d="
M704.921631,445.198425 
	C704.690552,445.517883 704.168762,445.946503 703.313232,446.262360 
	C703.529968,445.868927 704.080444,445.588257 704.921631,445.198425 
z"/>
<path fill="#111C5A" opacity="1.000000" stroke="none" 
	d="
M676.942200,478.225464 
	C676.937073,478.581696 676.773560,479.206360 676.344177,480.023560 
	C676.313538,479.642029 676.548706,479.067963 676.942200,478.225464 
z"/>
<path fill="#111C5A" opacity="1.000000" stroke="none" 
	d="
M784.037109,583.821655 
	C784.287537,583.594360 784.840515,583.266174 785.725037,582.923584 
	C785.484253,583.179749 784.911926,583.450317 784.037109,583.821655 
z"/>
<path fill="#111C5A" opacity="1.000000" stroke="none" 
	d="
M678.934326,474.225769 
	C678.892761,474.556335 678.715271,475.159454 678.294800,475.973999 
	C678.300659,475.623047 678.549561,475.060699 678.934326,474.225769 
z"/>
<path fill="#111C5A" opacity="1.000000" stroke="none" 
	d="
M819.067871,552.776245 
	C819.113342,552.453491 819.296692,551.865845 819.728638,551.082031 
	C819.720093,551.427673 819.462891,551.969482 819.067871,552.776245 
z"/>
<path fill="#111C5A" opacity="1.000000" stroke="none" 
	d="
M682.938599,467.231384 
	C682.909485,467.565735 682.735840,468.165131 682.303955,468.956665 
	C682.295166,468.598022 682.544617,468.047211 682.938599,467.231384 
z"/>
<path fill="#111C5A" opacity="1.000000" stroke="none" 
	d="
M796.783691,446.937439 
	C796.493835,446.861084 795.948975,446.648041 795.194580,446.218689 
	C795.499573,446.268524 796.014099,446.534637 796.783691,446.937439 
z"/>
<path fill="#111C5A" opacity="1.000000" stroke="none" 
	d="
M677.053833,545.119019 
	C677.400696,545.268677 677.726807,545.793457 678.123230,546.628906 
	C677.996094,546.955627 677.798584,546.971741 677.300537,546.994019 
	C677.000000,547.000244 676.992310,546.994568 676.992310,546.994568 
	C677.005859,546.494385 677.019409,545.994202 677.053833,545.119019 
z"/>
<path fill="#111C5A" opacity="1.000000" stroke="none" 
	d="
M805.947144,568.755127 
	C805.981750,568.637451 806.221497,568.339478 806.746094,567.983398 
	C806.738037,568.141785 806.445190,568.358276 805.947144,568.755127 
z"/>
<path fill="#111C5A" opacity="1.000000" stroke="none" 
	d="
M808.085571,566.810608 
	C808.094971,566.699463 808.262756,566.366577 808.680786,565.888794 
	C808.702026,566.025513 808.472961,566.307190 808.085571,566.810608 
z"/>
<path fill="#111C5A" opacity="1.000000" stroke="none" 
	d="
M700.207703,574.097534 
	C700.320190,574.118530 700.621887,574.309692 700.997742,574.764893 
	C700.846924,574.775208 700.621948,574.521423 700.207703,574.097534 
z"/>
<path fill="#111C5A" opacity="1.000000" stroke="none" 
	d="
M808.797363,457.904297 
	C808.670349,457.925293 808.417053,457.721985 808.129333,457.219116 
	C808.195007,457.270508 808.387085,457.523956 808.797363,457.904297 
z"/>
<path fill="#111C5A" opacity="1.000000" stroke="none" 
	d="
M709.211060,580.256958 
	C709.317322,580.260986 709.609192,580.402710 709.985962,580.784424 
	C709.870422,580.788513 709.645630,580.578613 709.211060,580.256958 
z"/>
<path fill="#111C5A" opacity="1.000000" stroke="none" 
	d="
M677.669617,477.237335 
	C677.792114,477.388336 677.660217,477.657379 677.174072,477.957764 
	C677.204102,477.887146 677.402588,477.675934 677.669617,477.237335 
z"/>
<path fill="#111C5A" opacity="1.000000" stroke="none" 
	d="
M786.084595,582.860901 
	C785.976746,582.668640 786.159607,582.407104 786.721375,582.199341 
	C786.708252,582.317505 786.466553,582.496948 786.084595,582.860901 
z"/>
<path fill="#111C5A" opacity="1.000000" stroke="none" 
	d="
M710.909851,441.168274 
	C710.900879,441.287109 710.730103,441.603485 710.293823,442.007385 
	C710.268250,441.851868 710.508179,441.608795 710.909851,441.168274 
z"/>
<path fill="#111C5A" opacity="1.000000" stroke="none" 
	d="
M810.759033,460.005188 
	C810.665527,459.968842 810.380981,459.756042 809.988831,459.296478 
	C810.110107,459.309387 810.339050,459.569092 810.759033,460.005188 
z"/>
<path fill="#111C5A" opacity="1.000000" stroke="none" 
	d="
M683.924377,466.164886 
	C683.922424,466.308167 683.743774,466.647491 683.275757,467.038635 
	C683.240112,466.847260 683.493896,466.604095 683.924377,466.164886 
z"/>
<path fill="#111C5A" opacity="1.000000" stroke="none" 
	d="
M679.208740,548.955994 
	C679.310120,548.996094 679.561890,549.225647 679.840454,549.712036 
	C679.702087,549.691833 679.532654,549.417358 679.208740,548.955994 
z"/>
<path fill="#111C5A" opacity="1.000000" stroke="none" 
	d="
M677.003418,547.004761 
	C677.006897,547.009338 676.945740,547.028809 676.968994,547.011719 
	C676.992310,546.994568 677.000000,547.000244 677.003418,547.004761 
z"/>
<path fill="#111C5A" opacity="1.000000" stroke="none" 
	d="
M797.830444,447.915710 
	C797.697632,447.907898 797.369324,447.725555 796.978638,447.261902 
	C797.155823,447.234131 797.395325,447.487640 797.830444,447.915710 
z"/>
<path fill="#111C5A" opacity="1.000000" stroke="none" 
	d="
M700.909851,448.165314 
	C700.893311,448.274780 700.715820,448.578796 700.281494,448.972473 
	C700.266052,448.828003 700.507507,448.593933 700.909851,448.165314 
z"/>
<path fill="#111C5A" opacity="1.000000" stroke="none" 
	d="
M693.274780,567.932129 
	C693.367126,567.975342 693.669739,568.204651 694.115112,568.683594 
	C694.000305,568.661499 693.742737,568.389893 693.274780,567.932129 
z"/>
<path fill="#111C5A" opacity="1.000000" stroke="none" 
	d="
M794.811768,445.846375 
	C794.687500,445.842499 794.375366,445.675476 793.992615,445.243530 
	C794.140442,445.228882 794.374512,445.463745 794.811768,445.846375 
z"/>
<path fill="#111C5A" opacity="1.000000" stroke="none" 
	d="
M683.259094,555.858032 
	C683.354614,555.912842 683.634460,556.188843 683.995239,556.753784 
	C683.865173,556.721497 683.654297,556.400391 683.259094,555.858032 
z"/>
<path fill="#111C5A" opacity="1.000000" stroke="none" 
	d="
M813.122009,560.800781 
	C813.144958,560.695740 813.332458,560.400330 813.775024,560.018677 
	C813.782288,560.158569 813.534424,560.384521 813.122009,560.800781 
z"/>
<path fill="#111C5A" opacity="1.000000" stroke="none" 
	d="
M811.922119,562.110291 
	C811.933350,562.081665 811.958740,562.176636 811.971436,562.207581 
	C811.984192,562.238525 811.910889,562.138916 811.922119,562.110291 
z"/>
<path fill="#111C5A" opacity="1.000000" stroke="none" 
	d="
M807.093506,567.827454 
	C807.099731,567.697937 807.279541,567.375000 807.740723,566.986816 
	C807.770386,567.159119 807.518738,567.396606 807.093506,567.827454 
z"/>
<path fill="#403677" opacity="1.000000" stroke="none" 
	d="
M213.489960,547.983765 
	C214.411819,547.665100 215.800552,547.056824 217.189850,547.055542 
	C271.117157,547.006592 325.044495,547.010986 378.971832,547.026489 
	C380.123840,547.026794 381.275818,547.240051 382.706543,547.671448 
	C326.642548,547.985107 270.299835,547.981201 213.489960,547.983765 
z"/>
<path fill="#403677" opacity="1.000000" stroke="none" 
	d="
M382.509888,575.001953 
	C380.907593,575.332581 378.838654,575.949951 376.769165,575.952026 
	C323.834412,576.004700 270.899628,575.993042 217.498352,575.985718 
	C218.413910,575.659729 219.795715,575.062683 221.178116,575.061279 
	C274.799713,575.007629 328.421387,575.008362 382.509888,575.001953 
z"/>
<path fill="#281E64" opacity="1.000000" stroke="none" 
	d="
M773.012939,553.919617 
	C773.012939,553.919617 772.725403,554.114624 772.139038,554.117310 
	C763.257263,555.414429 754.993042,557.381165 746.655396,557.768677 
	C741.023804,558.030396 735.288818,556.066833 729.600037,555.098633 
	C729.600037,555.098633 729.274597,555.135010 728.993591,554.734070 
	C727.085938,553.586731 725.459229,552.840271 723.832581,552.093872 
	C723.832581,552.093872 723.915222,552.085449 723.842529,551.901855 
	C723.157654,551.530029 722.545471,551.341736 721.933228,551.153442 
	C721.619324,551.050476 721.357605,550.871216 720.873047,550.202148 
	C720.370178,549.519043 720.142273,549.249451 719.914429,548.979858 
	C719.914429,548.979858 720.019165,548.983459 719.825073,548.860596 
	C719.389099,548.488831 719.147095,548.239990 718.905090,547.991150 
	C718.905090,547.991150 719.018127,548.167175 718.874451,547.871826 
	C716.424866,545.415588 714.118958,543.254639 711.813110,541.093689 
	C711.813110,541.093689 711.910339,540.979980 711.775879,540.860107 
	C711.401794,540.499939 711.162048,540.259644 710.922302,540.019348 
	C710.601929,539.627502 710.281555,539.235718 709.907349,538.235107 
	C709.202942,536.761414 708.552429,535.896484 707.901855,535.031494 
	C707.901855,535.031494 707.967590,535.043701 707.950378,534.675964 
	C707.667175,533.014832 707.627686,531.619751 707.099792,530.443909 
	C702.482117,520.158386 701.759766,509.641724 704.854736,498.806427 
	C705.195801,497.612366 704.912781,496.240112 704.919312,494.950500 
	C705.183105,494.145233 705.446960,493.339996 706.029968,492.034241 
	C706.538757,491.235229 706.728333,490.936737 706.917969,490.638245 
	C706.917969,490.638275 706.905273,490.279022 707.145386,489.942505 
	C707.571533,489.354218 707.782959,489.125854 708.019714,488.920868 
	C708.019714,488.920868 707.903320,489.024200 708.161072,488.826050 
	C708.881897,487.657715 709.344971,486.687561 709.808105,485.717438 
	C709.808105,485.717438 710.015747,485.822357 710.113647,485.662781 
	C710.460815,484.951752 710.710022,484.400269 710.959229,483.848755 
	C710.951721,483.524445 711.078613,483.266113 711.850586,482.873962 
	C712.909058,481.789459 713.456848,480.904816 714.004639,480.020203 
	C715.150574,478.760925 716.296509,477.501678 717.993347,475.970886 
	C719.005432,475.333282 719.466614,474.967255 719.927856,474.601257 
	C720.425049,474.091980 720.922241,473.582672 721.947876,472.896240 
	C722.998596,472.457733 723.520935,472.196350 724.043213,471.934998 
	C724.043213,471.934998 723.902039,472.027496 724.244080,471.943359 
	C734.979004,467.967499 745.450012,464.428253 756.809875,466.540436 
	C761.981506,467.502014 767.102722,468.734283 772.246826,469.843811 
	C772.246826,469.843811 772.142883,470.024048 772.332886,470.119568 
	C773.108521,470.450867 773.694092,470.686615 774.279724,470.922363 
	C774.279724,470.922363 774.690247,470.940430 775.050049,471.177216 
	C775.657471,471.587860 775.877380,471.791595 776.069641,472.025269 
	C776.069641,472.025269 775.976990,471.936005 776.164185,472.191803 
	C777.296509,472.947754 778.241577,473.447906 779.186646,473.948059 
	C781.040527,475.419037 782.894409,476.890015 785.011963,478.920288 
	C785.836121,479.992584 786.396667,480.505524 786.957153,481.018494 
	C786.957153,481.018494 787.006409,481.004211 787.067749,481.342346 
	C787.810303,482.426453 788.491516,483.172363 789.172668,483.918274 
	C789.172668,483.918304 789.088562,483.910522 789.130188,484.205444 
	C789.845825,485.304077 790.519836,486.107849 791.193848,486.911621 
	C791.193848,486.911621 791.100708,486.902924 791.128174,487.184998 
	C791.740356,488.307617 792.325134,489.148163 792.909912,489.988708 
	C792.909912,489.988708 793.046448,490.381134 793.073608,490.981567 
	C793.457031,492.858551 793.708923,494.175598 794.186462,495.404968 
	C797.265137,503.330017 798.402527,511.500000 796.791931,519.866028 
	C795.856323,524.725647 794.338562,529.473145 793.082764,534.271118 
	C792.939392,534.777039 792.795959,535.282898 792.113403,536.060486 
	C791.065674,537.274902 790.557007,538.217590 790.048340,539.160217 
	C790.052551,539.475037 789.933044,539.732300 789.182373,540.133179 
	C788.113831,541.213745 787.552673,542.093201 786.991577,542.972656 
	C786.977966,543.326782 786.831848,543.613281 786.051758,544.056519 
	C785.041504,544.878296 784.532593,545.475586 784.023682,546.072876 
	C783.973145,546.422974 783.797119,546.690491 782.985962,547.116516 
	C781.971558,547.761230 781.466675,548.164795 780.961853,548.568359 
	C780.529175,549.029602 780.096497,549.490784 779.088013,550.051758 
	C777.695557,550.833374 776.878845,551.515137 776.062134,552.196899 
	C775.695679,552.486084 775.329163,552.775208 774.480347,553.215454 
	C773.669678,553.550964 773.341309,553.735291 773.012939,553.919617 
M732.755554,501.455505 
	C732.529785,501.747040 732.304077,502.038574 732.060791,502.929474 
	C731.685608,503.624329 731.310364,504.319183 730.326843,505.370789 
	C727.101807,510.761017 727.381531,515.484619 731.643005,520.236877 
	C731.790161,520.740784 731.937378,521.244629 732.183716,522.435791 
	C732.874573,523.264709 733.565491,524.093628 734.786133,525.164185 
	C735.544556,526.032471 736.302979,526.900757 737.586670,528.161987 
	C737.913757,528.452454 738.240906,528.742981 739.030823,528.960266 
	C739.371033,529.242737 739.711182,529.525146 740.555237,530.137573 
	C741.090759,530.410645 741.626282,530.683716 742.606812,530.954590 
	C742.606812,530.954590 743.013611,531.135315 743.384460,531.728577 
	C746.836060,534.195007 750.330322,535.402771 754.579651,531.888306 
	C754.997986,531.837402 755.416321,531.786499 756.366089,531.934875 
	C757.567688,531.253784 758.769226,530.572693 760.285034,529.403748 
	C761.109009,528.913940 761.933044,528.424133 763.123779,527.524414 
	C763.397461,527.280579 763.671143,527.036743 764.131592,526.290894 
	C764.667175,525.833984 765.202759,525.377075 766.358826,524.647034 
	C766.868103,523.695251 767.377380,522.743469 768.034790,521.894348 
	C768.034790,521.894348 767.932312,522.042480 768.210571,521.473511 
	C768.449036,520.884583 768.687439,520.295715 768.897217,519.333496 
	C768.897217,519.333496 769.059143,518.995972 769.658203,518.617859 
	C773.189819,512.046692 772.044983,504.990295 766.917114,500.968262 
	C766.917114,500.968262 767.030029,501.072174 766.629395,500.753296 
	C766.389832,500.510773 766.150208,500.268250 765.354797,499.755341 
	C764.208130,498.589264 763.061523,497.423187 761.632263,495.634796 
	C760.659363,495.151764 759.686401,494.668762 758.928162,494.141479 
	C758.928162,494.141479 758.971802,494.356232 758.533508,493.732422 
	C753.721130,490.219757 748.183167,489.916534 743.650818,493.098572 
	C743.650818,493.098572 743.257080,493.068756 742.682068,493.239990 
	C742.130188,493.464996 741.578247,493.690002 740.520996,494.122314 
	C740.087036,494.436646 739.653076,494.751007 738.536072,495.153595 
	C737.723206,495.854370 736.910400,496.555176 735.955383,497.124512 
	C735.955383,497.124512 736.086670,496.982178 735.739014,497.371979 
	C735.486145,497.609802 735.233215,497.847595 735.126709,497.962555 
	C735.126709,497.962555 735.249695,498.108826 734.636536,498.361145 
	C734.101807,499.265045 733.567139,500.168945 733.004395,501.014130 
	C733.004395,501.014130 733.067444,500.998077 732.755554,501.455505 
z"/>
<path fill="#111C5A" opacity="1.000000" stroke="none" 
	d="
M772.024048,469.559265 
	C767.102722,468.734283 761.981506,467.502014 756.809875,466.540436 
	C745.450012,464.428253 734.979004,467.967499 724.197754,471.872803 
	C739.305542,461.805664 755.354126,461.878082 772.024048,469.559265 
z"/>
<path fill="#111C5A" opacity="1.000000" stroke="none" 
	d="
M793.374634,534.054565 
	C794.338562,529.473145 795.856323,524.725647 796.791931,519.866028 
	C798.402527,511.500000 797.265137,503.330017 794.186462,495.404968 
	C793.708923,494.175598 793.457031,492.858551 793.083496,491.189087 
	C800.928650,503.349823 800.642334,516.446045 795.620972,529.835205 
	C795.101929,531.219177 794.324158,532.506104 793.374634,534.054565 
z"/>
<path fill="#111C5A" opacity="1.000000" stroke="none" 
	d="
M729.853027,555.376831 
	C735.288818,556.066833 741.023804,558.030396 746.655396,557.768677 
	C754.993042,557.381165 763.257263,555.414429 771.965576,554.108154 
	C758.542419,561.527222 744.441895,561.782776 729.853027,555.376831 
z"/>
<path fill="#111C5A" opacity="1.000000" stroke="none" 
	d="
M704.686035,495.234802 
	C704.912781,496.240112 705.195801,497.612366 704.854736,498.806427 
	C701.759766,509.641724 702.482117,520.158386 707.099792,530.443909 
	C707.627686,531.619751 707.667175,533.014832 707.939697,534.707642 
	C700.349304,522.478699 699.778442,509.230316 704.686035,495.234802 
z"/>
<path fill="#111C5A" opacity="1.000000" stroke="none" 
	d="
M711.944641,541.406006 
	C714.118958,543.254639 716.424866,545.415588 718.786499,547.928467 
	C716.586914,546.093079 714.331543,543.905640 711.944641,541.406006 
z"/>
<path fill="#111C5A" opacity="1.000000" stroke="none" 
	d="
M724.025024,552.367493 
	C725.459229,552.840271 727.085938,553.586731 728.857422,554.643188 
	C727.407288,554.182495 725.812378,553.411804 724.025024,552.367493 
z"/>
<path fill="#111C5A" opacity="1.000000" stroke="none" 
	d="
M707.973633,535.353760 
	C708.552429,535.896484 709.202942,536.761414 709.884827,537.972900 
	C709.292542,537.438354 708.668945,536.557190 707.973633,535.353760 
z"/>
<path fill="#111C5A" opacity="1.000000" stroke="none" 
	d="
M790.309814,538.976379 
	C790.557007,538.217590 791.065674,537.274902 791.878418,536.191772 
	C791.645386,536.965027 791.108337,537.878784 790.309814,538.976379 
z"/>
<path fill="#111C5A" opacity="1.000000" stroke="none" 
	d="
M776.368347,552.097412 
	C776.878845,551.515137 777.695557,550.833374 778.851929,550.102783 
	C778.352539,550.701904 777.513550,551.349915 776.368347,552.097412 
z"/>
<path fill="#111C5A" opacity="1.000000" stroke="none" 
	d="
M787.240662,542.787476 
	C787.552673,542.093201 788.113831,541.213745 788.977051,540.208923 
	C788.682739,540.923218 788.086243,541.762817 787.240662,542.787476 
z"/>
<path fill="#111C5A" opacity="1.000000" stroke="none" 
	d="
M778.996948,473.691772 
	C778.241577,473.447906 777.296509,472.947754 776.208740,472.145386 
	C776.979797,472.373932 777.893555,472.904724 778.996948,473.691772 
z"/>
<path fill="#111C5A" opacity="1.000000" stroke="none" 
	d="
M792.898804,489.672791 
	C792.325134,489.148163 791.740356,488.307617 791.132690,487.138458 
	C791.702515,487.658813 792.295105,488.507843 792.898804,489.672791 
z"/>
<path fill="#111C5A" opacity="1.000000" stroke="none" 
	d="
M709.541687,485.899902 
	C709.344971,486.687561 708.881897,487.657715 708.109375,488.767883 
	C708.291626,487.966034 708.783447,487.024200 709.541687,485.899902 
z"/>
<path fill="#111C5A" opacity="1.000000" stroke="none" 
	d="
M791.094604,486.609497 
	C790.519836,486.107849 789.845825,485.304077 789.134277,484.163391 
	C789.729614,484.653442 790.362488,485.480408 791.094604,486.609497 
z"/>
<path fill="#111C5A" opacity="1.000000" stroke="none" 
	d="
M789.062744,483.632507 
	C788.491516,483.172363 787.810303,482.426453 787.054016,481.364014 
	C787.636902,481.813934 788.294861,482.580353 789.062744,483.632507 
z"/>
<path fill="#111C5A" opacity="1.000000" stroke="none" 
	d="
M713.754150,480.202026 
	C713.456848,480.904816 712.909058,481.789459 712.061523,482.801453 
	C712.342468,482.080505 712.923096,481.232178 713.754150,480.202026 
z"/>
<path fill="#111C5A" opacity="1.000000" stroke="none" 
	d="
M722.068359,551.422241 
	C722.545471,551.341736 723.157654,551.530029 723.846558,551.943237 
	C723.349976,552.009094 722.776733,551.850037 722.068359,551.422241 
z"/>
<path fill="#111C5A" opacity="1.000000" stroke="none" 
	d="
M786.844910,480.751373 
	C786.396667,480.505524 785.836121,479.992584 785.141174,479.221069 
	C785.582031,479.469757 786.157349,479.977020 786.844910,480.751373 
z"/>
<path fill="#111C5A" opacity="1.000000" stroke="none" 
	d="
M784.289551,545.938660 
	C784.532593,545.475586 785.041504,544.878296 785.825439,544.156860 
	C785.585449,544.623413 785.070435,545.213928 784.289551,545.938660 
z"/>
<path fill="#111C5A" opacity="1.000000" stroke="none" 
	d="
M774.075195,470.656433 
	C773.694092,470.686615 773.108521,470.450867 772.242676,470.067688 
	C772.598572,470.076996 773.234680,470.233765 774.075195,470.656433 
z"/>
<path fill="#111C5A" opacity="1.000000" stroke="none" 
	d="
M710.700562,484.040955 
	C710.710022,484.400269 710.460815,484.951752 710.061279,485.766663 
	C710.087952,485.431122 710.264893,484.832123 710.700562,484.040955 
z"/>
<path fill="#111C5A" opacity="1.000000" stroke="none" 
	d="
M719.658691,474.733917 
	C719.466614,474.967255 719.005432,475.333282 718.295532,475.856812 
	C718.494324,475.631744 718.941956,475.249176 719.658691,474.733917 
z"/>
<path fill="#111C5A" opacity="1.000000" stroke="none" 
	d="
M781.261475,548.429932 
	C781.466675,548.164795 781.971558,547.761230 782.748779,547.184326 
	C782.534424,547.437866 782.047729,547.864685 781.261475,548.429932 
z"/>
<path fill="#111C5A" opacity="1.000000" stroke="none" 
	d="
M723.741394,471.956421 
	C723.520935,472.196350 722.998596,472.457733 722.215698,472.855530 
	C722.449890,472.653931 722.944763,472.315918 723.741394,471.956421 
z"/>
<path fill="#111C5A" opacity="1.000000" stroke="none" 
	d="
M775.984680,471.792267 
	C775.877380,471.791595 775.657471,471.587860 775.226074,471.283203 
	C775.410767,471.113708 775.696594,471.249329 775.984680,471.792267 
z"/>
<path fill="#111C5A" opacity="1.000000" stroke="none" 
	d="
M773.306152,553.879883 
	C773.341309,553.735291 773.669678,553.550964 774.233459,553.205933 
	C774.179077,553.310242 773.889282,553.575195 773.306152,553.879883 
z"/>
<path fill="#111C5A" opacity="1.000000" stroke="none" 
	d="
M718.946777,548.286865 
	C719.147095,548.239990 719.389099,548.488831 719.823425,548.912964 
	C719.673401,548.919739 719.330933,548.751160 718.946777,548.286865 
z"/>
<path fill="#111C5A" opacity="1.000000" stroke="none" 
	d="
M719.966614,549.263184 
	C720.142273,549.249451 720.370178,549.519043 720.780884,549.980103 
	C720.648743,549.963196 720.333801,549.754883 719.966614,549.263184 
z"/>
<path fill="#111C5A" opacity="1.000000" stroke="none" 
	d="
M706.684692,490.798828 
	C706.728333,490.936737 706.538757,491.235229 706.206665,491.757294 
	C706.193237,491.640411 706.322327,491.299927 706.684692,490.798828 
z"/>
<path fill="#111C5A" opacity="1.000000" stroke="none" 
	d="
M707.766907,488.991516 
	C707.782959,489.125854 707.571533,489.354218 707.241455,489.790649 
	C707.236389,489.670929 707.375244,489.366547 707.766907,488.991516 
z"/>
<path fill="#111C5A" opacity="1.000000" stroke="none" 
	d="
M711.009033,540.282593 
	C711.162048,540.259644 711.401794,540.499939 711.832886,540.908569 
	C711.714783,540.899841 711.405273,540.722839 711.009033,540.282593 
z"/>
<path fill="#FD0C82" opacity="1.000000" stroke="none" 
	d="
M732.084534,521.748535 
	C731.937378,521.244629 731.790161,520.740784 731.353638,519.680542 
	C731.021179,514.420776 730.978149,509.717377 730.935120,505.014008 
	C731.310364,504.319183 731.685608,503.624329 732.308105,502.468475 
	C732.726135,501.671021 732.896790,501.334534 733.067444,500.998077 
	C733.067444,500.998077 733.004395,501.014130 733.263794,500.852631 
	C734.098755,499.830383 734.674255,498.969604 735.249695,498.108826 
	C735.249695,498.108826 735.126709,497.962555 735.344849,497.972290 
	C735.737610,497.648743 735.912109,497.315460 736.086670,496.982178 
	C736.086670,496.982178 735.955383,497.124512 736.329590,497.069244 
	C737.542175,496.364410 738.380676,495.714844 739.219116,495.065308 
	C739.653076,494.751007 740.087036,494.436646 741.087280,494.047607 
	C742.188049,493.671478 742.722534,493.370117 743.257080,493.068756 
	C743.257080,493.068756 743.650818,493.098572 744.231567,493.025391 
	C749.532104,493.420197 754.251953,493.888214 758.971802,494.356232 
	C758.971802,494.356232 758.928162,494.141479 759.014832,494.423492 
	C760.039307,495.222717 760.977051,495.739899 761.914856,496.257111 
	C763.061523,497.423187 764.208130,498.589264 765.738892,500.142334 
	C766.425354,500.710297 766.727661,500.891235 767.030029,501.072174 
	C767.030029,501.072174 766.917114,500.968262 766.991821,501.377991 
	C770.499695,507.203186 770.622620,513.001953 769.059143,518.995972 
	C769.059143,518.995972 768.897217,519.333496 768.663391,519.743103 
	C768.263794,520.782654 768.098022,521.412537 767.932312,522.042480 
	C767.932312,522.042480 768.034790,521.894348 767.700439,522.032654 
	C766.823425,523.087341 766.280823,524.003723 765.738281,524.920166 
	C765.202759,525.377075 764.667175,525.833984 763.791199,526.676514 
	C763.219543,527.352905 762.988281,527.643616 762.757080,527.934326 
	C761.933044,528.424133 761.109009,528.913940 759.807373,529.718079 
	C758.164612,530.600098 756.999634,531.167847 755.834656,531.735535 
	C755.416321,531.786499 754.997986,531.837402 753.838623,531.953125 
	C749.736328,531.723755 746.374939,531.429504 743.013611,531.135315 
	C743.013611,531.135315 742.606812,530.954590 742.169922,530.736084 
	C741.172424,530.280945 740.611938,530.044250 740.051392,529.807617 
	C739.711182,529.525146 739.371033,529.242737 738.610596,528.718750 
	C737.814026,528.241150 737.437683,528.005127 737.061340,527.769043 
	C736.302979,526.900757 735.544556,526.032471 734.388000,524.747192 
	C733.354797,523.469604 732.719666,522.609070 732.084534,521.748535 
z"/>
<path fill="#111C5A" opacity="1.000000" stroke="none" 
	d="
M769.358643,518.806885 
	C770.622620,513.001953 770.499695,507.203186 766.939819,501.434387 
	C772.044983,504.990295 773.189819,512.046692 769.358643,518.806885 
z"/>
<path fill="#111C5A" opacity="1.000000" stroke="none" 
	d="
M730.630981,505.192383 
	C730.978149,509.717377 731.021179,514.420776 731.127197,519.536987 
	C727.381531,515.484619 727.101807,510.761017 730.630981,505.192383 
z"/>
<path fill="#111C5A" opacity="1.000000" stroke="none" 
	d="
M758.752686,494.044312 
	C754.251953,493.888214 749.532104,493.420197 744.411743,492.944702 
	C748.183167,489.916534 753.721130,490.219757 758.752686,494.044312 
z"/>
<path fill="#111C5A" opacity="1.000000" stroke="none" 
	d="
M743.199036,531.431946 
	C746.374939,531.429504 749.736328,531.723755 753.537842,532.052979 
	C750.330322,535.402771 746.836060,534.195007 743.199036,531.431946 
z"/>
<path fill="#111C5A" opacity="1.000000" stroke="none" 
	d="
M756.100342,531.835205 
	C756.999634,531.167847 758.164612,530.600098 759.650208,529.962036 
	C758.769226,530.572693 757.567688,531.253784 756.100342,531.835205 
z"/>
<path fill="#111C5A" opacity="1.000000" stroke="none" 
	d="
M732.134155,522.092163 
	C732.719666,522.609070 733.354797,523.469604 734.123169,524.626343 
	C733.565491,524.093628 732.874573,523.264709 732.134155,522.092163 
z"/>
<path fill="#111C5A" opacity="1.000000" stroke="none" 
	d="
M766.048584,524.783569 
	C766.280823,524.003723 766.823425,523.087341 767.626343,521.981323 
	C767.377380,522.743469 766.868103,523.695251 766.048584,524.783569 
z"/>
<path fill="#111C5A" opacity="1.000000" stroke="none" 
	d="
M761.773560,495.945953 
	C760.977051,495.739899 760.039307,495.222717 758.907471,494.445618 
	C759.686401,494.668762 760.659363,495.151764 761.773560,495.945953 
z"/>
<path fill="#111C5A" opacity="1.000000" stroke="none" 
	d="
M738.877563,495.109436 
	C738.380676,495.714844 737.542175,496.364410 736.400635,497.134949 
	C736.910400,496.555176 737.723206,495.854370 738.877563,495.109436 
z"/>
<path fill="#111C5A" opacity="1.000000" stroke="none" 
	d="
M734.943115,498.234985 
	C734.674255,498.969604 734.098755,499.830383 733.277832,500.881989 
	C733.567139,500.168945 734.101807,499.265045 734.943115,498.234985 
z"/>
<path fill="#111C5A" opacity="1.000000" stroke="none" 
	d="
M740.303345,529.972595 
	C740.611938,530.044250 741.172424,530.280945 741.947388,530.737183 
	C741.626282,530.683716 741.090759,530.410645 740.303345,529.972595 
z"/>
<path fill="#111C5A" opacity="1.000000" stroke="none" 
	d="
M768.071411,521.757996 
	C768.098022,521.412537 768.263794,520.782654 768.677734,519.929749 
	C768.687439,520.295715 768.449036,520.884583 768.071411,521.757996 
z"/>
<path fill="#111C5A" opacity="1.000000" stroke="none" 
	d="
M742.969604,493.154358 
	C742.722534,493.370117 742.188049,493.671478 741.339966,493.943939 
	C741.578247,493.690002 742.130188,493.464996 742.969604,493.154358 
z"/>
<path fill="#111C5A" opacity="1.000000" stroke="none" 
	d="
M737.323975,527.965515 
	C737.437683,528.005127 737.814026,528.241150 738.379150,528.755371 
	C738.240906,528.742981 737.913757,528.452454 737.323975,527.965515 
z"/>
<path fill="#111C5A" opacity="1.000000" stroke="none" 
	d="
M762.940430,527.729370 
	C762.988281,527.643616 763.219543,527.352905 763.697815,526.927551 
	C763.671143,527.036743 763.397461,527.280579 762.940430,527.729370 
z"/>
<path fill="#111C5A" opacity="1.000000" stroke="none" 
	d="
M766.829712,500.912720 
	C766.727661,500.891235 766.425354,500.710297 766.016846,500.277527 
	C766.150208,500.268250 766.389832,500.510773 766.829712,500.912720 
z"/>
<path fill="#111C5A" opacity="1.000000" stroke="none" 
	d="
M732.911499,501.226807 
	C732.896790,501.334534 732.726135,501.671021 732.316895,502.168823 
	C732.304077,502.038574 732.529785,501.747040 732.911499,501.226807 
z"/>
<path fill="#111C5A" opacity="1.000000" stroke="none" 
	d="
M735.912842,497.177063 
	C735.912109,497.315460 735.737610,497.648743 735.271729,498.033722 
	C735.233215,497.847595 735.486145,497.609802 735.912842,497.177063 
z"/>
</svg>